<svg viewBox="0 0 18 12" xmlns="http://www.w3.org/2000/svg" xmlns:xlink="http://www.w3.org/1999/xlink" width="18.000000" height="12.000000" fill="none" customFrame="#000000">
	<g id="Group">
		<path id="Vector" d="M17.05 5L0.95 5C0.42533 5 0 5.42533 0 5.95L0 6.05C0 6.57467 0.42533 7 0.95 7L17.05 7C17.5747 7 18 6.57467 18 6.05L18 5.95C18 5.42533 17.5747 5 17.05 5Z" fill="rgb(51,51,51)" fill-rule="evenodd" />
		<path id="Vector" d="M17.05 10L0.95 10C0.42533 10 0 10.4253 0 10.95L0 11.05C0 11.5747 0.42533 12 0.95 12L17.05 12C17.5747 12 18 11.5747 18 11.05L18 10.95C18 10.4253 17.5747 10 17.05 10Z" fill="rgb(51,51,51)" fill-rule="evenodd" />
		<path id="Vector" d="M17.05 0L0.95 0C0.42533 0 0 0.425329 0 0.95L0 1.05C0 1.57467 0.42533 2 0.95 2L17.05 2C17.5747 2 18 1.57467 18 1.05L18 0.95C18 0.425329 17.5747 0 17.05 0Z" fill="rgb(51,51,51)" fill-rule="evenodd" />
	</g>
</svg>
