<svg viewBox="0 0 482 519" xmlns="http://www.w3.org/2000/svg" xmlns:xlink="http://www.w3.org/1999/xlink" width="482.000000" height="519.000000" fill="none">
	<rect id="5eb420490d0c5f30afda64fe_blocks3 1" width="482.000000" height="519.000000" x="0.000000" y="0.000000" fill="rgb(255,255,255)" fill-opacity="0" />
	<path id="Vector" d="M340.294 348.828L406.409 308.695L406.409 40.0859L339.085 79.0056L340.294 348.828Z" fill="rgb(79,98,246)" fill-rule="nonzero" />
	<path id="Vector" d="M340.212 348.69L272.888 309.77L272.888 39.9395L340.212 78.8591L340.212 348.69Z" fill="rgb(52,44,163)" fill-rule="nonzero" />
	<path id="Vector" d="M274.253 39.9388L340.509 78.9383L406.767 39.9388L340.509 0.939453L274.253 39.9388Z" fill="rgb(89,143.06,248)" fill-rule="nonzero" />
	<path id="Vector" d="M248.25 400.268L315.576 361.348L315.576 38.9194L248.25 77.8391L248.25 400.268Z" fill="rgb(214,210,205)" fill-rule="nonzero" />
	<path id="Vector" d="M248.45 400.729L181.124 361.811L181.124 38.9844L248.45 77.9041L248.45 400.729Z" fill="rgb(193,189,185)" fill-rule="nonzero" />
	<path id="Vector" d="M180.99 38.9197L248.247 77.8392L315.571 38.9197L248.247 0L180.99 38.9197Z" fill="rgb(231,229,227)" fill-rule="nonzero" />
	<path id="Vector" d="M157.218 454.125L224.475 413.492L224.475 39.2573L157.218 78.177L157.218 454.125Z" fill="rgb(49,50,56)" fill-rule="nonzero" />
	<path id="Vector" d="M89.8961 39.2575L157.222 78.1772L224.478 39.2575L157.222 0.337891L89.8961 39.2575Z" fill="rgb(81,82,88)" fill-rule="nonzero" />
	<path id="Vector" d="M157.222 454.258L89.8961 415.338L89.8961 39.2573L157.222 78.177L157.222 454.258Z" fill="rgb(23,24,26)" fill-rule="nonzero" />
	<path id="Vector" d="M67.3282 502.483L134.654 463.563L134.654 245.338L67.3282 284.258L67.3282 502.483Z" fill="rgb(79,98,246)" fill-rule="nonzero" />
	<path id="Vector" d="M0 245.338L67.3253 284.258L134.651 245.338L67.3253 206.418L0 245.338Z" fill="rgb(89,143.06,248)" fill-rule="nonzero" />
	<path id="Vector" d="M67.3253 500.638L0 461.718L0 245.338L67.3253 284.258L67.3253 500.638Z" fill="rgb(52,44,163)" fill-rule="nonzero" />
	<path id="Vector" d="M93.5027 448.648L41.1727 475.162L65.1644 486.923L119.063 459.086L219.636 308.472L305.762 303.005L406.336 137.478L475.827 113.05L419.363 95.3857L419.363 107.162L367.996 132.507L285.203 286.103L190.743 286.103L93.5027 448.648Z" fill="rgb(132,214,215)" fill-rule="nonzero" />
	<path id="Vector" d="M440.477 156.065L443.811 142.147L446.589 130.714L419.363 149.603L440.477 156.065Z" fill="rgb(53,153,154)" fill-rule="nonzero" />
	<path id="Vector" d="M401.113 169.081L457.154 135.968L443.075 109.438L374.088 142.195L292.16 297.458L201.895 297.458L100.38 460.718L49.558 485.9L62.8695 514.508L126.238 485.9L222.134 333.937L314.123 333.937L401.113 169.081Z" fill="rgb(86,173,174)" fill-rule="evenodd" />
	<path id="Vector" d="M440.387 155.639L440.387 102.451L480.395 112.393L440.387 155.639Z" fill="rgb(86,173,174)" fill-rule="nonzero" />
	<path id="Vector" d="M63.269 485.172L41.7582 475.162L41.7582 503.424L63.269 514.026L63.269 485.172Z" fill="rgb(53,153,154)" fill-rule="nonzero" />
</svg>
