<svg viewBox="0 0 45 16" xmlns="http://www.w3.org/2000/svg" xmlns:xlink="http://www.w3.org/1999/xlink" width="45.000000" height="16.000000" fill="none" customFrame="#000000">
	<path id="LOGO" d="M1.125 13.1L1.125 2.375L3.75 2.375L3.75 10.85L8.13 10.85L8.13 13.1L1.125 13.1ZM8.53805 7.67C8.53805 6.11 9.06305 4.81 10.113 3.77C11.163 2.72 12.508 2.195 14.148 2.195C15.788 2.195 17.133 2.72 18.183 3.77C19.233 4.81 19.758 6.11 19.758 7.67C19.758 9.27 19.233 10.605 18.183 11.675C17.133 12.745 15.788 13.28 14.148 13.28C12.508 13.28 11.163 12.745 10.113 11.675C9.06305 10.605 8.53805 9.27 8.53805 7.67ZM11.253 7.67C11.253 8.59 11.523 9.355 12.063 9.965C12.613 10.575 13.308 10.88 14.148 10.88C14.988 10.88 15.678 10.575 16.218 9.965C16.768 9.355 17.043 8.59 17.043 7.67C17.043 6.79 16.768 6.06 16.218 5.48C15.678 4.89 14.988 4.595 14.148 4.595C13.308 4.595 12.613 4.89 12.063 5.48C11.523 6.06 11.253 6.79 11.253 7.67ZM20.8577 7.715C20.8577 6.145 21.3877 4.835 22.4477 3.785C23.5177 2.725 24.8627 2.195 26.4827 2.195C28.1527 2.195 29.5277 2.67 30.6077 3.62L29.3477 5.585C29.0377 5.305 28.6377 5.07 28.1477 4.88C27.6577 4.69 27.1877 4.595 26.7377 4.595C25.6777 4.595 24.8827 4.885 24.3527 5.465C23.8327 6.035 23.5727 6.755 23.5727 7.625C23.5727 8.615 23.8677 9.405 24.4577 9.995C25.0577 10.585 25.7877 10.88 26.6477 10.88C27.4277 10.88 28.1527 10.62 28.8227 10.1L28.8227 9.275L27.3077 9.275L27.3077 7.04L31.1477 7.04L31.1477 13.1L28.9577 13.1L28.9577 12.8L28.9727 12.35L28.9427 12.35C28.6227 12.63 28.2027 12.855 27.6827 13.025C27.1727 13.195 26.6527 13.28 26.1227 13.28C24.6827 13.28 23.4427 12.775 22.4027 11.765C21.3727 10.755 20.8577 9.405 20.8577 7.715ZM32.4443 7.67C32.4443 6.11 32.9693 4.81 34.0193 3.77C35.0693 2.72 36.4143 2.195 38.0543 2.195C39.6943 2.195 41.0393 2.72 42.0893 3.77C43.1393 4.81 43.6643 6.11 43.6643 7.67C43.6643 9.27 43.1393 10.605 42.0893 11.675C41.0393 12.745 39.6943 13.28 38.0543 13.28C36.4143 13.28 35.0693 12.745 34.0193 11.675C32.9693 10.605 32.4443 9.27 32.4443 7.67ZM35.1593 7.67C35.1593 8.59 35.4293 9.355 35.9693 9.965C36.5193 10.575 37.2143 10.88 38.0543 10.88C38.8943 10.88 39.5843 10.575 40.1243 9.965C40.6743 9.355 40.9493 8.59 40.9493 7.67C40.9493 6.79 40.6743 6.06 40.1243 5.48C39.5843 4.89 38.8943 4.595 38.0543 4.595C37.2143 4.595 36.5193 4.89 35.9693 5.48C35.4293 6.06 35.1593 6.79 35.1593 7.67Z" fill="rgb(0,0,0)" fill-rule="nonzero" />
</svg>
