<svg viewBox="0 0 6.24115 11.0408" xmlns="http://www.w3.org/2000/svg" xmlns:xlink="http://www.w3.org/1999/xlink" width="6.241150" height="11.040771" fill="none" customFrame="#000000">
	<path id="Vector" d="M9.62384 0.24136C9.78 0.086738 9.99088 0 10.2106 0C10.4304 0 10.6413 0.086738 10.7974 0.24136C10.8745 0.317289 10.9358 0.407793 10.9776 0.507607C11.0193 0.607421 11.0409 0.71455 11.0409 0.82276C11.0409 0.930971 11.0193 1.0381 10.9776 1.13791C10.9358 1.23773 10.8745 1.32823 10.7974 1.40416L6.10784 6.00016C5.95132 6.15457 5.7403 6.24114 5.52044 6.24114C5.30057 6.24114 5.08955 6.15457 4.93304 6.00016L0.243435 1.40416C0.166336 1.32823 0.105108 1.23773 0.063315 1.13791C0.0215224 1.0381 0 0.930971 0 0.82276C0 0.71455 0.0215224 0.607421 0.063315 0.507607C0.105108 0.407793 0.166336 0.317289 0.243435 0.24136C0.399597 0.086738 0.610476 0 0.830236 0C1.05 0 1.26087 0.086738 1.41704 0.24136L5.52224 4.01056L9.62384 0.24136Z" fill="rgb(0,0,0)" fill-rule="nonzero" transform="matrix(-4.37114e-08,-1,1,-4.37114e-08,0,11.0408)" />
</svg>
